<svg xmlns="http://www.w3.org/2000/svg" viewBox="0 0 100 100" width="100" height="100">
  <defs>
    <linearGradient id="goldGradAv2" x1="0%" y1="0%" x2="100%" y2="100%">
      <stop offset="0%" stop-color="#B8960C"/><stop offset="50%" stop-color="#D4AF37"/><stop offset="100%" stop-color="#F0D68A"/>
    </linearGradient>
  </defs>

  <circle cx="50" cy="50" r="46" fill="#111" stroke="url(#goldGradAv2)" stroke-width="2.5"/>
  <circle cx="50" cy="50" r="43" fill="#1a1a1a"/>

  <!-- Person silhouette - longer hair, professional -->
  <g transform="translate(50,48)">
    <!-- Head -->
    <ellipse cx="0" cy="-12" rx="11" ry="13" fill="#2a2a2a" stroke="#D4AF37" stroke-width="0.8"/>
    <!-- Hair - shoulder length -->
    <path d="M-12,-22 C-14,-28 -8,-32 0,-32 C8,-32 14,-28 12,-22 C14,-15 14,-5 12,2 C10,5 8,2 8,-5 C8,-12 6,-18 0,-22 C-6,-18 -8,-12 -8,-5 C-8,2 -10,5 -12,2 C-14,-5 -14,-15 -12,-22"
          fill="#2a2a2a" stroke="#D4AF37" stroke-width="0.6" opacity="0.5"/>
    <!-- Shoulders - blazer -->
    <path d="M-22,8 C-16,2 -8,0 0,0 C8,0 16,2 22,8 L22,25 L-22,25 Z" fill="#2a2a2a" stroke="#D4AF37" stroke-width="0.8"/>
    <!-- Blazer lapels -->
    <path d="M-8,3 L-4,8 L0,4" fill="none" stroke="#D4AF37" stroke-width="0.5" opacity="0.4"/>
    <path d="M8,3 L4,8 L0,4" fill="none" stroke="#D4AF37" stroke-width="0.5" opacity="0.4"/>
  </g>
</svg>